<?xml version="1.0" encoding="utf-8"?>
<!-- Generator: Adobe Illustrator 22.0.1, SVG Export Plug-In . SVG Version: 6.00 Build 0)  -->
<svg version="1.1" id="Ebene_1" xmlns="http://www.w3.org/2000/svg" xmlns:xlink="http://www.w3.org/1999/xlink" x="0px" y="0px"
	 viewBox="0 0 183.3 63.8" style="enable-background:new 0 0 183.3 63.8;" xml:space="preserve">
<style type="text/css">
	.st0{clip-path:url(#SVGID_2_);fill:#822661;}
	.st1{clip-path:url(#SVGID_4_);fill:#822661;}
	.st2{clip-path:url(#SVGID_6_);fill:#822661;}
	.st3{fill:#822661;}
	.st4{fill:#006B80;}
	.st5{fill:#372C48;}
</style>
<g>
	<g>
		<defs>
			<rect id="SVGID_1_" x="1" y="1" width="181.8" height="62"/>
		</defs>
		<clipPath id="SVGID_2_">
			<use xlink:href="#SVGID_1_"  style="overflow:visible;"/>
		</clipPath>
		<path class="st0" d="M62.2,39h-6v11.7c0,5.3-2.5,6.8-6,6.8c-2.5,0-4.3-0.5-5.8-2L40,59.1c3,3.2,6.5,3.9,10.1,3.9
			c8.6,0,12-4.1,12-12.4V39H62.2z"/>
	</g>
	<g>
		<defs>
			<rect id="SVGID_3_" x="1" y="1" width="181.8" height="62"/>
		</defs>
		<clipPath id="SVGID_4_">
			<use xlink:href="#SVGID_3_"  style="overflow:visible;"/>
		</clipPath>
		<path class="st1" d="M81.5,38.4c-9.6,0-14.2,4.1-14.2,11.7v1.2C67.3,58.9,72,63,81.5,63c9.6,0,14.3-4.1,14.3-11.7v-1.2
			C95.8,42.5,91.1,38.4,81.5,38.4 M81.5,57.5c-4.4,0-8.2-1.5-8.2-6.1v-1.3c0-4.7,3.8-6.1,8.2-6.1c4.5,0,8.3,1.5,8.3,6.1v1.3
			C89.8,56,86,57.5,81.5,57.5"/>
	</g>
	<g>
		<defs>
			<rect id="SVGID_5_" x="1" y="1" width="181.8" height="62"/>
		</defs>
		<clipPath id="SVGID_6_">
			<use xlink:href="#SVGID_5_"  style="overflow:visible;"/>
		</clipPath>
		<path class="st2" d="M115.7,39h-14.4v23.4h5.8v-7.1h8.5c5.9,0,9.2-2.9,9.2-8.3C124.9,40.9,121.6,39,115.7,39 M107.2,50v-5.6h8.1
			c2.2,0,3.6,0.5,3.6,2.6s-1.3,3-3.6,3H107.2z"/>
	</g>
</g>
<polygon class="st3" points="129.3,39 129.3,62.4 135.3,62.4 135.3,56.6 140.2,52.3 147.4,62.4 155,62.4 144.8,48.3 155.3,39.1 
	147.8,39.1 135.3,49.6 135.3,39 "/>
<polygon class="st3" points="159.8,39 159.8,62.4 182.8,62.4 182.8,57 165.8,57 165.8,53 178.9,53 178.9,48.2 165.8,48.2 
	165.8,44.4 182.6,44.4 182.6,39 "/>
<rect x="18.2" y="1" class="st3" width="28.4" height="38.1"/>
<rect x="0.9" y="39.1" class="st4" width="17.3" height="23.3"/>
<polygon class="st5" points="18.2,39.1 18.2,62.4 46.6,39.1 "/>
</svg>
